<svg width="1200" height="1200" viewBox="0 0 1200 1200" fill="none" xmlns="http://www.w3.org/2000/svg">
  <rect width="1200" height="1200" rx="72" fill="#F8F6F1"/>
  <rect x="122" y="122" width="956" height="956" rx="48" fill="#FCFAF7" stroke="#E8DED2" stroke-width="8"/>
  <path d="M441 122V1078" stroke="#E3D7CA" stroke-width="8"/>
  <path d="M759 122V1078" stroke="#E3D7CA" stroke-width="8"/>
  <path d="M122 441H1078" stroke="#E3D7CA" stroke-width="8"/>
  <path d="M122 759H1078" stroke="#E3D7CA" stroke-width="8"/>

  <rect x="154" y="154" width="254" height="254" rx="32" fill="#A7CBE6"/>
  <rect x="473" y="154" width="254" height="254" rx="32" fill="#D86E3A"/>
  <rect x="792" y="154" width="254" height="254" rx="32" fill="#93B34B"/>
  <rect x="154" y="473" width="254" height="254" rx="32" fill="#6E9B2D"/>
  <rect x="473" y="473" width="254" height="254" rx="32" fill="#4A2E22"/>
  <rect x="792" y="473" width="254" height="254" rx="32" fill="#D95F1F"/>
  <rect x="154" y="792" width="254" height="254" rx="32" fill="#8A5A3B"/>
  <rect x="473" y="792" width="254" height="254" rx="32" fill="#4C8FC7"/>
  <rect x="792" y="792" width="254" height="254" rx="32" fill="#F0C7A8"/>

  <text x="281" y="308" text-anchor="middle" font-family="Georgia, serif" font-size="122" fill="#4A2E22">4</text>
  <text x="600" y="308" text-anchor="middle" font-family="Georgia, serif" font-size="122" fill="#F8F6F1">9</text>
  <text x="919" y="308" text-anchor="middle" font-family="Georgia, serif" font-size="122" fill="#4A2E22">2</text>
  <text x="281" y="627" text-anchor="middle" font-family="Georgia, serif" font-size="122" fill="#F8F6F1">3</text>
  <text x="600" y="627" text-anchor="middle" font-family="Georgia, serif" font-size="122" fill="#F8F6F1">5</text>
  <text x="919" y="627" text-anchor="middle" font-family="Georgia, serif" font-size="122" fill="#F8F6F1">7</text>
  <text x="281" y="946" text-anchor="middle" font-family="Georgia, serif" font-size="122" fill="#F8F6F1">8</text>
  <text x="600" y="946" text-anchor="middle" font-family="Georgia, serif" font-size="122" fill="#F8F6F1">1</text>
  <text x="919" y="946" text-anchor="middle" font-family="Georgia, serif" font-size="122" fill="#4A2E22">6</text>

  <text x="600" y="1128" text-anchor="middle" font-family="Georgia, serif" font-size="38" fill="#8A5A3B">Nine Star Ki basispatroon</text>
</svg>
