<svg width="1200" height="900" viewBox="0 0 1200 900" fill="none" xmlns="http://www.w3.org/2000/svg">
  <rect width="1200" height="900" fill="#FCFAF7"/>
  <rect x="124" y="126" width="952" height="648" rx="40" fill="#F8F6F1" stroke="#E7DDD0" stroke-width="4"/>
  <rect x="191" y="191" width="365" height="222" rx="24" fill="#F0E7DB"/>
  <circle cx="319" cy="303" r="78" fill="#F2D9C1"/>
  <path d="M431 226C457 258 485 302 497 350" stroke="#D86E3A" stroke-width="8" stroke-linecap="round"/>
  <path d="M256 408C301 380 355 364 410 364C487 364 555 396 596 447" stroke="#8A5A3B" stroke-width="6" stroke-linecap="round" opacity="0.5"/>
  <rect x="624" y="186" width="384" height="474" rx="28" fill="white" stroke="#E7DDD0" stroke-width="4"/>
  <rect x="663" y="228" width="306" height="16" rx="8" fill="#E9DED1"/>
  <rect x="663" y="270" width="228" height="16" rx="8" fill="#E9DED1"/>
  <rect x="663" y="340" width="264" height="14" rx="7" fill="#EFE7DD"/>
  <rect x="663" y="380" width="280" height="14" rx="7" fill="#EFE7DD"/>
  <rect x="663" y="420" width="240" height="14" rx="7" fill="#EFE7DD"/>
  <rect x="663" y="460" width="262" height="14" rx="7" fill="#EFE7DD"/>
  <rect x="663" y="500" width="214" height="14" rx="7" fill="#EFE7DD"/>
  <circle cx="911" cy="588" r="24" fill="#D86E3A"/>
  <path d="M316 629C367 557 455 510 549 510C665 510 756 566 823 674" stroke="#6E9B2D" stroke-width="8" stroke-linecap="round" opacity="0.55"/>
  <ellipse cx="393" cy="689" rx="99" ry="36" fill="#E6D9CA"/>
  <path d="M394 636C433 636 467 658 479 689H309C321 658 355 636 394 636Z" fill="#4C8FC7"/>
  <path d="M897 707C867 638 803 591 727 591C666 591 609 621 574 671" stroke="#C57B57" stroke-width="8" stroke-linecap="round" opacity="0.5"/>
  <path d="M281 562C322 538 355 511 389 468" stroke="#D95F1F" stroke-width="7" stroke-linecap="round" opacity="0.6"/>
</svg>
