<svg width="1200" height="900" viewBox="0 0 1200 900" fill="none" xmlns="http://www.w3.org/2000/svg">
  <rect width="1200" height="900" fill="#F8F6F1"/>
  <circle cx="930" cy="190" r="95" fill="#F3D6B8"/>
  <path d="M150 745C245 585 385 490 520 470C675 447 807 536 936 500C1017 477 1084 428 1136 364V900H98V831C104 803 121 780 150 745Z" fill="#EFE7DD"/>
  <path d="M248 734C296 625 401 534 519 512C624 492 712 530 785 514C862 497 922 447 961 383C953 498 933 626 876 725C816 831 727 881 586 881C458 881 345 831 248 734Z" fill="#FCFAF7"/>
  <path d="M627 621C653 521 745 418 819 343C846 315 876 284 893 254C891 327 926 390 969 451C1016 517 1068 589 1068 674C1068 800 962 856 850 856C731 856 608 781 627 621Z" fill="#D86E3A"/>
  <path d="M477 802C470 659 568 515 670 428C742 368 792 308 813 250C786 406 748 529 713 634C679 734 637 809 585 856C531 843 483 831 477 802Z" fill="#C85E2F" opacity="0.35"/>
  <path d="M444 835C432 729 451 614 489 507C522 414 573 338 648 266C637 340 645 426 662 514C682 618 699 708 676 772C651 843 600 870 532 870C487 870 447 864 444 835Z" fill="#84A62E"/>
  <path d="M519 831C505 697 537 565 593 450C626 383 667 323 719 268C676 382 670 511 666 621C662 718 648 798 603 856C573 852 522 849 519 831Z" fill="#6E9B2D" opacity="0.45"/>
  <path d="M350 821C345 714 386 603 454 511C523 418 609 357 694 311C621 390 563 497 529 600C505 672 491 752 490 831H350Z" fill="#8CB8DD" opacity="0.6"/>
  <path d="M250 830C250 750 278 680 332 620C385 562 455 521 527 489C470 570 433 648 422 736C418 772 418 804 422 830H250Z" fill="#A8CCE7" opacity="0.7"/>
  <path d="M347 776C430 702 518 651 610 626" stroke="#4A2E22" stroke-width="6" stroke-linecap="round"/>
  <path d="M742 173C775 228 801 287 810 355" stroke="#D95F1F" stroke-width="7" stroke-linecap="round" opacity="0.7"/>
  <path d="M305 212C378 178 469 174 545 205" stroke="#6E9B2D" stroke-width="7" stroke-linecap="round" opacity="0.65"/>
</svg>
