<svg width="64" height="64" viewBox="0 0 64 64" fill="none" xmlns="http://www.w3.org/2000/svg">
  <rect x="4" y="4" width="56" height="56" rx="16" fill="#F7F3ED"/>
  <rect x="16" y="48" width="32" height="4" rx="2" fill="#A87450"/>

  <path
    d="M20 16C13 24 12.5 39 20 47"
    stroke="#6F6A67"
    stroke-width="3.5"
    stroke-linecap="round"
  />
  <path
    d="M21 16L25 12"
    stroke="#6F6A67"
    stroke-width="3"
    stroke-linecap="round"
  />

  <path
    d="M41 14C47 20 49 28 45 35C49 39 49 46 41 50C42 45 39 42 35.5 38C31.5 33.5 32.5 24 41 14Z"
    fill="#D95F1F"
  />

  <path
    d="M32 19C25 25 21.5 31 21.5 37C21.5 44 26 49 32 49C38 49 42.5 44 42.5 37C42.5 31 39 25 32 19Z"
    stroke="#6E9B2D"
    stroke-width="2.5"
    stroke-linejoin="round"
  />

  <path
    d="M32 22C28 27 25 31 25 36C25 41.5 28.2 45 32 45C35.8 45 39 41.5 39 36C39 31 36 27 32 22Z"
    fill="#4C8FC7"
  />

  <path
    d="M32 43V33"
    stroke="#6E9B2D"
    stroke-width="2.2"
    stroke-linecap="round"
  />
  <path
    d="M32 35C29.5 34.4 28.5 32.1 28.2 30.2C30.3 30.2 32.1 31.5 32 35Z"
    fill="#6E9B2D"
  />
  <path
    d="M32 38C34.5 37.4 35.5 35.1 35.8 33.2C33.7 33.2 31.9 34.5 32 38Z"
    fill="#6E9B2D"
  />
</svg>
